<?xml version="1.0" ?><!DOCTYPE svg  PUBLIC '-//W3C//DTD SVG 1.1//EN'  'http://www.w3.org/Graphics/SVG/1.1/DTD/svg11.dtd'><svg enable-background="new 0 0 512 512" height="512px" id="Idea" version="1.1" viewBox="0 0 512 512" width="512px" xml:space="preserve" xmlns="http://www.w3.org/2000/svg" xmlns:xlink="http://www.w3.org/1999/xlink"><path d="M256,0c141.355,0,256,114.644,256,256c0,141.355-114.645,256-256,256  C114.644,512,0,397.355,0,256C0,114.644,114.644,0,256,0z" fill="#16A085" id="Background"/><g id="Idea_1_"><g><path d="M256,146.508c7.821,0,13.818-5.995,13.818-13.554V13.816c0-5.473-3.129-10.427-8.083-12.513    C259.91,0.521,258.086,0,256,0c-7.56,0-13.556,6.257-13.556,13.816v119.138c0,2.346,0.523,4.692,1.824,6.778    C246.616,143.902,251.046,146.508,256,146.508z M247.655,134.519v-0.262v-0.26v-0.261v-0.26v-0.262v-0.26V13.816    c0-3.909,2.348-7.298,5.997-8.341c5.477-1.303,10.689,2.346,10.951,7.819c0,0.262,0,0.262,0,0.521v119.138    c0,4.692-3.911,8.341-8.603,8.341h-0.262h-0.262h-0.258h-0.262h-0.258h-0.262h-0.262l-0.262-0.26h-0.262h-0.261l-0.258-0.262    h-0.262h-0.258v-0.26h-0.262h-0.262v-0.26h-0.262h-0.262v-0.262h-0.258v-0.26h-0.262h-0.258v-0.262h-0.262v-0.26h-0.262v-0.261    h-0.262v-0.26h-0.262v-0.262h-0.258v-0.26h-0.262v-0.262l-0.258-0.26v-0.26h-0.262v-0.262v-0.26h-0.262v-0.262v-0.259h-0.261    v-0.262v-0.26h-0.262v-0.262v-0.26v-0.262l-0.262-0.26V134.519z" fill="#4E5A62"/><path d="M180.138,164.757c6.779-3.649,8.865-12.251,5.216-18.768l-45.62-78.991    c-1.566-2.346-3.652-4.43-6.258-5.474c-3.911-1.824-8.865-1.564-12.514,0.522c-6.517,3.91-8.864,12.251-5.215,18.77l45.62,78.989    C165.277,166.322,173.622,168.668,180.138,164.757z M126.435,65.435c3.391-0.522,7.041,1.041,8.865,4.17l45.358,78.989    c2.348,4.17,1.047,9.384-3.126,11.732c-3.91,2.346-9.384,1.042-11.731-3.129l-45.358-78.989    C117.571,73.254,120.181,66.476,126.435,65.435z" fill="#4E5A62"/><path d="M350.63,159.805l45.624-78.989c3.648-6.519,1.301-14.86-5.216-18.77l-1.043-0.522    c-6.517-2.868-14.076-0.521-17.726,5.474l-45.623,78.991c-2.344,4.17-2.344,9.644,0,13.816c1.043,1.563,2.348,3.127,3.911,4.17    c-4.692-2.868-9.904-4.692-15.381-5.213c-2.868-3.651-6.256-6.779-10.166-9.386c-5.735-3.387-11.994-5.213-18.51-5.213    c-9.646,0-18.511,3.911-25.286,10.429c-1.828,2.084-3.652,4.43-5.215,6.776c-1.301-2.346-3.129-4.692-5.212-6.776    c-6.52-6.519-15.643-10.429-25.026-10.429c-6.521,0-13.037,1.826-18.511,5.213c-3.911,2.607-7.302,5.735-10.166,9.386    c-7.301,0.521-14.341,3.649-19.815,8.603c-4.692,4.432-8.083,9.905-9.646,15.902c-4.95,2.346-9.384,5.735-12.771,9.906    c-4.434,5.997-7.041,13.035-7.041,20.595c0,0.781,0,1.565,0,2.346c-3.911,2.346-7.301,5.213-10.165,8.864    c-4.434,5.735-7.04,13.035-7.04,20.333c0,4.954,1.043,9.646,3.129,14.076c0.782,1.567,1.563,2.868,2.345,4.435    c-2.083,2.605-3.911,5.474-5.474,8.341c-2.868,5.997-4.431,12.514-4.431,19.03c0,7.821,2.344,15.644,6.513,22.421    c2.871,4.954,7.043,9.122,11.732,12.514c-0.262,1.043-0.262,1.824-0.262,2.867c0,9.385,3.391,18.249,9.646,25.026    c4.434,4.693,10.169,8.342,16.166,10.166c1.04,5.735,3.649,10.95,7.821,15.12c5.212,5.215,12.252,8.083,19.55,8.083    c1.043,0,1.828,0,2.868,0c2.61,2.086,5.474,3.648,8.345,4.953c4.43,1.824,8.86,2.868,13.556,2.868    c-4.958,4.691-8.083,11.47-8.083,18.507v1.565c-3.387,0.781-5.997,3.91-5.997,7.56v3.911c0,3.129,1.563,5.735,4.172,7.036    c-2.609,1.828-4.172,4.696-4.172,8.083v8.342c0,3.91,2.086,7.301,5.211,8.864c-3.125,2.867-5.211,6.777-5.211,11.208v14.861    c0,7.298,8.603,13.814,14.08,17.206c8.599,4.953,18.769,8.341,28.676,9.384c1.825,0.262,3.649,0.262,5.474,0.262    c9.384,0,47.968-8.083,47.968-26.852c0-8.603,2.344-19.553-5.216-26.069c7.302-3.911,7.56-20.855,1.043-25.289    c6.517-3.387,6.259-16.42-1.824-18.507c0-7.821-2.349-14.6-8.083-20.072c4.692,0,9.126-1.044,13.295-2.868    c3.129-1.305,5.997-2.867,8.606-4.953c0.781,0,1.824,0,2.605,0c7.561,0,14.6-2.868,19.812-8.083    c3.911-4.17,6.778-9.385,7.561-15.12c6.257-1.824,11.731-5.473,16.162-10.166c6.258-6.777,9.906-15.642,9.906-25.026    c0-1.043-0.261-1.824-0.261-2.867c4.691-3.392,8.603-7.56,11.731-12.514c4.173-6.777,6.518-14.6,6.518-22.421    c0-6.517-1.563-13.033-4.431-19.03c-1.566-2.867-3.392-5.735-5.735-8.341c1.043-1.566,1.825-2.867,2.344-4.435    c2.087-4.43,3.13-9.122,3.13-14.076c0-7.298-2.345-14.598-6.778-20.333c-2.868-3.651-6.255-6.519-10.428-8.864    c0.262-0.781,0.262-1.565,0.262-2.346c0-7.56-2.605-14.598-7.039-20.595c-3.389-4.17-7.822-7.56-12.772-9.906    c-1.566-5.997-4.953-11.47-9.646-15.902c-1.043-0.782-2.348-1.825-3.392-2.608c0,0,0,0,0.263,0    C338.379,168.668,346.72,166.322,350.63,159.805z M293.017,420.237h3.391c1.563,0,2.606,1.043,2.606,2.605v3.911    c0,1.563-1.043,2.605-2.606,2.605h-3.391v7.56h0.785h0.259h0.261h0.262h0.259h0.261v0.263h0.263h0.261h0.258v0.261h0.263h0.261    v0.258h0.263h0.258v0.263h0.261v0.261h0.263v0.263h0.258v0.258h0.262v0.261h0.262v0.263v0.258h0.262v0.262l0.258,0.262v0.261    v0.259l0.262,0.262v0.262v0.262v0.258v0.262v8.342v0.261v0.263v0.261v0.259h-0.262v0.262v0.261v0.259l-0.258,0.262v0.262    l-0.262,0.261l-0.262,0.259v0.262h-0.262v0.261h-0.258v0.263h-0.263v0.258h-0.261v0.262h-0.258h-0.263v0.262h-0.261h-0.263v0.258    h-0.258h-0.261l-0.263,0.262h-0.261h-0.259h-0.262h-0.261h-1.044v6.517c3.653,1.566,5.997,4.954,5.997,8.603v14.861    c0,0.262,0,0.262,0,0.52c0,0.523-0.262,0.785-0.262,1.305v0.262c-3.387,7.821-16.944,14.077-22.159,15.901    c-6.255,2.348-12.771,3.391-19.288,3.648h-0.262h-0.781c-21.378,0-43.018-14.076-43.018-21.636v-14.861    c0-3.91,2.348-7.298,5.997-8.603v-6.517h-1.04c-2.871,0-4.958-2.345-4.958-4.953v-8.342c0-2.605,2.086-4.954,4.958-4.954h1.04    v-7.56h-3.649c-1.301,0-2.348-1.042-2.348-2.605v-3.911c0-1.563,1.047-2.605,2.348-2.605h3.649v-6.52    c0-10.947,9.126-20.332,20.335-20.332h33.109c0.52,0,1.043,0.258,1.563,0.258h0.52h0.522c3.649,0.523,7.037,2.087,9.908,4.173    C292.235,403.552,293.017,410.592,293.017,420.237z M251.566,257.824c-0.778-2.086-2.083-4.17-3.126-6.256    c1.825-2.084,3.388-4.17,4.951-6.778c1.046-1.825,2.086-3.909,2.609-6.257c0.781,2.348,1.824,4.432,2.867,6.257    c1.306,2.608,3.129,4.694,4.954,6.778c-1.305,2.086-2.348,4.17-3.13,6.256c-2.086,5.216-3.387,10.689-3.387,16.163    c0,5.477,1.043,10.688,3.126,15.643c0.784,2.344,1.824,4.431,3.129,6.517c-1.824,2.086-3.387,4.431-4.431,7.04    c-1.305,2.605-2.348,5.212-3.129,8.079c-0.523-2.867-1.563-5.474-2.868-8.079c-1.305-2.609-2.606-4.954-4.431-7.04    c1.301-2.086,2.344-4.173,3.126-6.517c2.086-4.954,2.871-10.166,2.871-15.643C254.699,268.514,253.652,263.04,251.566,257.824z     M250.265,205.427c1.825-1.826,3.649-3.651,4.954-5.735c0.258-0.521,0.52-1.043,0.781-1.305c0.262,0.262,0.52,0.783,0.781,1.305    c1.566,2.084,3.129,3.909,5.215,5.735c-1.305,1.563-2.086,2.868-3.129,4.431c-1.043,2.086-2.086,4.172-2.867,6.256    c-0.523-2.084-1.563-4.17-2.609-6.256C252.351,208.294,251.308,206.99,250.265,205.427z M254.957,331.862    c0.52-1.305,0.781-2.606,1.043-4.173c0.52,1.566,0.781,2.868,1.305,4.173c0.52,1.563,1.301,3.129,1.824,4.431    c-1.043,1.823-2.086,3.391-3.129,5.215c-0.781-1.824-1.825-3.392-3.129-5.215C253.652,334.991,254.437,333.425,254.957,331.862z     M262.778,384.521c1.563,1.305,2.867,2.605,4.431,3.649h-22.156c1.301-1.044,2.864-2.345,4.168-3.649    c2.868-2.867,5.215-5.996,6.778-9.385C257.824,378.525,260.173,381.654,262.778,384.521z M340.203,187.178    c5.215,1.824,9.646,4.952,13.036,9.384c3.649,4.692,5.994,10.689,5.994,17.206c0,1.565-0.259,3.129-0.52,4.433    c0,0.521,0,0.781,0,1.043c4.691,1.824,8.602,4.952,11.731,8.863c3.649,4.691,5.735,10.688,5.735,17.205    c0,4.172-0.785,8.343-2.609,11.994c-1.044,2.345-2.606,4.691-4.431,6.778c3.129,2.867,5.735,6.517,7.821,10.427    c2.345,4.954,3.91,10.689,3.91,16.683c0,7.302-2.086,14.08-5.735,19.814c-3.128,5.212-7.559,9.385-12.774,12.515    c0,0.258,0,0.781,0,1.301c0.262,1.305,0.52,2.867,0.52,4.172c0,8.341-3.387,15.901-8.341,21.378    c-4.431,4.95-10.428,8.342-17.206,9.904c-0.261,5.997-2.605,11.47-6.777,15.381c-3.911,4.173-9.646,6.517-15.901,6.517    c-1.043,0-2.086,0-3.129-0.259c-0.262,0-0.781,0-1.043,0c-2.606,2.345-5.735,4.17-9.123,5.735    c-3.652,1.563-7.821,2.606-12.255,2.606c-8.861,0-16.683-3.649-22.68-9.385c-5.735-5.735-9.122-13.817-9.122-22.421    c0-4.691,1.043-9.122,2.605-13.033c1.563-3.129,3.388-5.996,5.735-8.602c-1.563-2.087-2.605-4.173-3.391-6.779    c-1.301-3.129-1.824-6.778-1.824-10.427c0-5.216,1.043-9.907,3.391-14.08c1.563-3.388,3.649-6.255,6.255-8.86    c-2.086-2.609-3.649-5.735-4.954-8.864c-1.563-4.173-2.605-8.865-2.605-13.818c0-4.954,1.043-9.646,2.868-14.077    c1.305-3.39,3.129-6.256,5.215-9.124c-2.868-2.346-5.215-5.214-7.302-8.603c-2.344-4.17-3.911-9.386-3.911-14.859    c0-5.476,1.567-10.427,4.173-14.859c1.563-2.868,3.649-5.214,5.997-7.56c-3.391-2.085-6.259-4.953-8.342-8.343    c-3.129-4.692-5.215-10.427-5.215-16.684c0,6.256-1.825,11.992-4.954,16.684c-2.344,3.39-4.953,6.257-8.341,8.343    c2.348,2.346,4.431,4.692,5.997,7.56c2.606,4.432,3.911,9.384,3.911,14.859c0,5.473-1.305,10.689-3.911,14.859    c-1.824,3.389-4.172,6.257-7.301,8.603c2.348,2.868,3.911,5.733,5.477,9.124c1.824,4.431,2.606,9.123,2.606,14.077    c0,4.953-0.782,9.646-2.348,13.818c-1.305,3.129-3.129,6.255-4.954,8.864c2.609,2.605,4.695,5.473,6.258,8.86    c2.086,4.173,3.388,8.864,3.388,14.08c0,3.648-0.782,7.298-1.825,10.427c-0.781,2.606-2.086,4.692-3.387,6.779    c2.348,2.605,4.172,5.473,5.474,8.602c1.824,3.911,2.868,8.342,2.868,13.033c0,8.604-3.649,16.686-9.384,22.421    c-5.735,5.735-13.557,9.385-22.421,9.385c-4.431,0-8.603-1.044-12.51-2.606c-3.133-1.565-6.259-3.391-8.868-5.735    c-0.258,0-0.778,0-1.04,0c-1.043,0.259-2.086,0.259-3.391,0.259c-5.993,0-11.728-2.344-15.9-6.517    c-3.911-3.911-6.52-9.384-6.52-15.381c-6.775-1.563-12.772-4.954-17.206-9.904c-5.212-5.477-8.341-13.037-8.341-21.378    c0-1.305,0.262-2.867,0.262-4.172c0.258-0.52,0.258-1.043,0.258-1.301c-5.212-3.13-9.642-7.303-12.771-12.515    c-3.649-5.734-5.735-12.513-5.735-19.814c0-5.993,1.301-11.729,3.911-16.683c1.825-3.91,4.434-7.56,7.821-10.427    c-1.825-2.087-3.387-4.434-4.695-6.778c-1.563-3.65-2.603-7.821-2.603-11.994c0-6.517,2.344-12.514,5.993-17.205    c3.129-3.911,7.04-7.039,11.732-8.863c0-0.262,0-0.522-0.262-1.043c0-1.303-0.258-2.868-0.258-4.433    c0-6.517,2.344-12.513,5.993-17.206c3.391-4.432,7.821-7.56,13.037-9.384c1.04-6.257,4.169-11.732,8.599-15.903    c4.958-4.432,11.732-7.3,19.034-7.3h0.258c2.61-4.17,5.997-7.56,9.908-9.906c4.691-2.868,10.169-4.694,15.904-4.694    c8.341,0,15.9,3.389,21.374,9.125c5.477,5.475,8.864,13.035,8.864,21.378c0-8.343,3.387-15.903,8.864-21.378    c5.735-5.735,13.295-9.125,21.637-9.125c5.734,0,11.208,1.826,15.642,4.694c4.173,2.346,7.561,5.735,10.166,9.906h0.262    c7.298,0,13.818,2.868,19.029,7.3C336.03,175.446,339.16,180.921,340.203,187.178z M331.339,157.459v-0.262l-0.258-0.26v-0.262    l-0.263-0.26v-0.262l-0.261-0.26v-0.262v-0.26l-0.263-0.262v-0.26v-0.259v-0.262v-0.26v-0.262h-0.258v-0.26v-0.262v-0.26v-0.262    v-0.26v-0.262v-0.26h0.258v-0.259v-0.262v-0.26v-0.261v-0.26l0.263-0.261v-0.26v-0.261l0.261-0.26v-0.262v-0.26h0.263v-0.26    l0.258-0.262L376.7,69.605c2.606-4.17,7.821-5.214,11.731-3.129c4.17,2.348,5.475,7.821,3.13,11.732l-45.362,78.989    c-2.348,4.17-7.82,5.475-11.731,3.129h-0.262v-0.262h-0.258h-0.262v-0.26h-0.262v-0.262h-0.262l-0.259-0.26v-0.262h-0.261v-0.26    h-0.262l-0.259-0.262v-0.26h-0.261v-0.262H331.6v-0.26v-0.259H331.339z" fill="#4E5A62"/></g><path d="M239.576,393.386h33.109c10.947,0,20.331,9.385,20.331,20.332v56.05c0,11.209-9.384,20.334-20.331,20.334   h-33.109c-11.209,0-20.335-9.125-20.335-20.334v-56.05C219.241,402.771,228.367,393.386,239.576,393.386z" fill="#E6E6E6"/><path d="M222.371,461.165h67.521c4.95,0,9.122,4.173,9.122,9.122v14.861c0,7.821-21.116,21.636-42.752,21.636   c-21.378,0-43.018-14.076-43.018-21.636v-14.861C213.244,465.338,217.417,461.165,222.371,461.165z" fill="#BFC2C5"/><path d="M218.202,436.919h75.859c2.609,0,4.953,2.349,4.953,4.954v8.342c0,2.608-2.344,4.953-4.953,4.953h-75.859   c-2.871,0-4.958-2.345-4.958-4.953v-8.342C213.244,439.268,215.331,436.919,218.202,436.919z" fill="#D4D7DB"/><path d="M215.592,420.237h80.815c1.563,0,2.606,1.043,2.606,2.605v3.911c0,1.563-1.043,2.605-2.606,2.605h-80.815   c-1.301,0-2.348-1.042-2.348-2.605v-3.911C213.244,421.28,214.291,420.237,215.592,420.237z" fill="#D4D8D9"/><path d="M274.249,393.644c10.427,0.786,18.768,9.646,18.768,20.074v56.05c0,5.735-2.605,10.951-6.255,14.6   c0-24.246,0-59.699,0-69.607C286.762,406.681,280.245,398.859,274.249,393.644z" fill="#CFCFCF"/><path d="M286.762,461.165h3.13c4.95,0,9.122,4.173,9.122,9.122v14.861c0,3.911-4.953,8.865-12.513,13.295   C286.762,489.579,286.762,475.241,286.762,461.165z" fill="#ACAFB1"/><path d="M286.762,436.919h7.299c2.609,0,4.953,2.349,4.953,4.954v8.342c0,2.608-2.344,4.953-4.953,4.953h-7.299   C286.762,448.913,286.762,442.654,286.762,436.919z" fill="#BFC2C5"/><path d="M286.762,420.237h9.646c1.563,0,2.606,1.043,2.606,2.605v3.911c0,1.563-1.043,2.605-2.606,2.605h-9.646   V420.237z" fill="#BFC2C3"/><path d="M180.658,148.595L135.3,69.605c-1.043-1.564-2.609-2.868-4.172-3.389l-0.262-0.26h-0.258h-0.262   c-0.258-0.262-0.782-0.262-1.043-0.262v-0.259h-0.262h-0.261h-0.258h-0.258h-0.261h-0.262h-0.262h-0.262h-0.262h-0.258h-0.262   h-0.258v0.259h-0.262h-0.262h-0.262l-0.262,0.262h-0.258h-0.262l-0.258,0.26h-0.262l-0.262,0.26h-0.261l-0.262,0.262h-0.261v0.26   h-0.258l-0.262,0.262l-0.258,0.26h-0.262v0.262h-0.261v0.26l-0.262,0.262h-0.262v0.259h-0.258v0.262l-0.262,0.26v0.262l-0.258,0.26   l-0.262,0.26v0.262l-0.262,0.26v0.262v0.26h-0.262v0.262v0.26v0.262h-0.262v0.26v0.262v0.26v0.259v0.262l-0.258,0.26v0.262v0.26   c0,0.262,0,0.262,0,0.521v0.262v0.26l0.258,0.262v0.26V75.6v0.262v0.26v0.262h0.262v0.26v0.261l0.262,0.26v0.262v0.26l0.262,0.262   v0.26h0.262l45.358,78.989c2.348,4.17,7.821,5.475,11.731,3.129C181.705,157.979,183.005,152.765,180.658,148.595z" fill="#4E5A62"/><path d="M387.65,66.216L387.65,66.216L387.65,66.216L387.65,66.216l-0.261-0.26l0,0h-0.263l0,0l0,0h-0.261l0,0   l-0.259-0.262l0,0l0,0h-0.262l0,0l0,0h-0.261l0,0h-0.259l0,0v-0.259h-0.262l0,0l0,0h-0.262l0,0h-0.262l0,0h-0.258l0,0l0,0l0,0   h-0.262l0,0h-0.262h-0.262l0,0l0,0l0,0h-0.258l0,0l0,0h-0.262l0,0h-0.262l0,0l0,0l0,0h-0.258l0,0l0,0h-0.263v0.259l0,0l0,0h-0.261   l0,0h-0.262l0,0h-0.259l0,0l0,0l-0.261,0.262l0,0h-0.262l0,0l0,0h-0.262l0,0l0,0l-0.259,0.26l0,0h-0.262l0,0l0,0h-0.261v0.26l0,0   h-0.262l0,0l-0.259,0.262l0,0l0,0h-0.262l0,0l0,0l0,0l-0.261,0.26l0,0l0,0l-0.259,0.262l0,0h-0.262l0,0v0.26l0,0h-0.261l0,0v0.262   l0,0h-0.263l0,0v0.26h-0.258l0,0l0,0v0.262h-0.261l0,0l0,0v0.259l0,0h-0.263v0.262l0,0l0,0l-0.258,0.26l0,0l0,0l0,0l-0.262,0.262   l0,0v0.26l0,0H376.7l-45.361,78.989l-0.258,0.262l0,0l0,0v0.26l0,0l0,0h-0.263v0.26l0,0l0,0v0.262l0,0l0,0l-0.261,0.26l0,0l0,0l0,0   v0.261l0,0l0,0v0.26l0,0l0,0l-0.263,0.261l0,0l0,0l0,0v0.26l0,0l0,0v0.261l0,0l0,0v0.26l0,0l0,0v0.262l0,0l0,0v0.259h-0.258v0.26   l0,0l0,0v0.262l0,0l0,0v0.26l0,0l0,0l0,0v0.262l0,0l0,0v0.26l0,0v0.262l0,0l0,0v0.26l0,0h0.258l0,0v0.262l0,0v0.26l0,0l0,0v0.262   l0,0l0,0l0,0v0.259l0,0l0,0v0.26l0,0l0,0l0.263,0.262l0,0l0,0v0.26l0,0l0,0v0.262l0,0l0,0l0,0l0.261,0.26l0,0l0,0v0.262l0,0l0,0   l0.263,0.26v0.262l0,0l0,0l0,0l0,0l0.258,0.26c0.523,1.303,1.824,2.346,3.129,3.129l0,0c3.911,2.346,9.384,1.042,11.731-3.129   l45.362-78.989c2.345-3.911,1.04-9.385-3.13-11.732l0,0C388.171,66.476,387.908,66.216,387.65,66.216z" fill="#4E5A62"/><path d="M256,5.214L256,5.214L256,5.214h0.262l0,0l0,0l0,0l0,0h0.258l0,0l0,0l0,0l0,0l0,0h0.261l0,0l0,0l0,0l0,0   h0.262l0,0l0,0l0,0l0,0l0,0h0.262l0,0l0,0l0,0l0,0l0,0h0.258l0,0l0,0l0,0l0,0l0,0l0.262,0.262l0,0l0,0l0,0l0,0l0,0h0.262l0,0l0,0   l0,0l0,0h0.262l0,0l0,0l0,0l0,0l0,0l0,0h0.258l0,0l0,0l0,0l0,0v0.26h0.262l0,0l0,0l0,0l0,0h0.262l0,0l0,0l0,0l0,0l0,0h0.258l0,0   l0,0v0.262l0,0l0,0h0.263l0,0c2.867,1.303,4.953,4.17,4.953,7.819v119.138c0,4.692-3.911,8.341-8.603,8.341l0,0   c-3.129,0-5.735-1.563-7.298-4.17l0,0l0,0l0,0v-0.26l0,0h-0.262l0,0l0,0l0,0v-0.262l0,0l0,0l0,0l0,0v-0.259h-0.261l0,0l0,0l0,0   v-0.262l0,0l0,0l0,0l0,0l0,0l0,0v-0.26l0,0l0,0h-0.262l0,0v-0.262l0,0l0,0l0,0l0,0v-0.26l0,0l0,0l0,0l0,0v-0.262l0,0l0,0l0,0l0,0   l-0.262-0.26l0,0l0,0l0,0v-0.26l0,0l0,0l0,0l0,0v-0.262l0,0l0,0l0,0l0,0v-0.26l0,0l0,0l0,0v-0.261l0,0l0,0l0,0l0,0v-0.26l0,0l0,0   l0,0l0,0v-0.262l0,0l0,0l0,0v-0.26l0,0l0,0l0,0l0,0V13.816v-0.26v-0.262v-0.26v-0.26l0,0v-0.262v-0.26v-0.262v-0.26h0.262v-0.261   v-0.26v-0.262h0.262v-0.26v-0.262v-0.26l0,0h0.261v-0.26l0.262-0.262v-0.26l0,0l0.262-0.261v-0.26h0.258V8.603l0,0h0.262v-0.26   l0.258-0.262l0,0l0,0l0.262-0.26l0,0l0,0l0.262-0.262l0,0l0.262-0.259l0.262-0.26l0,0l0,0l0.258-0.262l0,0l0,0h0.262l0.258-0.26   l0,0l0,0l0.262-0.262h0.262l0,0l0.262-0.26h0.262h0.258V5.735h0.262h0.258l0.261-0.26l0,0l0,0h0.262h0.262h0.262l0,0l0.262-0.262   l0,0l0,0l0,0h0.258h0.262h0.258l0,0h0.262l0,0H256L256,5.214L256,5.214z" fill="#4E5A62"/><path d="M312.57,163.976h-0.262c-2.605-4.17-5.993-7.56-10.166-9.906c-4.434-2.868-9.907-4.694-15.642-4.694   c-8.342,0-15.901,3.389-21.637,9.125c-5.478,5.475-8.864,13.035-8.864,21.378c0,6.256-1.825,11.992-4.954,16.684   c-2.344,3.39-4.953,6.257-8.341,8.343c2.348,2.346,4.431,4.692,5.997,7.56c2.606,4.432,3.911,9.384,3.911,14.859   c0,5.473-1.305,10.689-3.911,14.859c-1.824,3.389-4.172,6.257-7.301,8.603c2.348,2.868,3.911,5.733,5.477,9.124   c1.824,4.431,2.606,9.123,2.606,14.077c0,4.953-0.782,9.646-2.348,13.818c-1.305,3.129-3.129,6.255-4.954,8.864   c2.609,2.605,4.695,5.473,6.258,8.86c2.086,4.173,3.388,8.864,3.388,14.08c0,3.648-0.782,7.298-1.825,10.427   c-0.781,2.606-2.086,4.692-3.387,6.779c2.348,2.605,4.172,5.473,5.474,8.602c1.824,3.911,2.868,8.342,2.868,13.033   c0,8.604-3.649,16.686-9.384,22.421c-5.735,5.735-13.557,9.385-22.421,9.385c-4.431,0-8.603-1.044-12.51-2.606   c-3.133-1.565-6.259-3.391-8.868-5.735c-0.258,0-0.778,0-1.04,0c-1.043,0.259-2.086,0.259-3.391,0.259   c-5.993,0-11.728-2.344-15.9-6.517c-3.911-3.911-6.52-9.384-6.52-15.381c-6.775-1.563-12.772-4.954-17.206-9.904   c-5.212-5.477-8.341-13.037-8.341-21.378c0-1.305,0.262-2.867,0.262-4.172l0,0c0.258-0.52,0.258-1.043,0.258-1.301   c-5.212-3.13-9.642-7.303-12.771-12.515c-3.649-5.734-5.735-12.513-5.735-19.814c0-5.993,1.301-11.729,3.911-16.683   c1.825-3.91,4.434-7.56,7.821-10.427c-1.825-2.087-3.387-4.434-4.695-6.778c-1.563-3.65-2.603-7.821-2.603-11.994   c0-6.517,2.344-12.514,5.993-17.205c3.129-3.911,7.04-7.039,11.732-8.863c0-0.262,0-0.522-0.262-1.043   c0-1.303-0.258-2.868-0.258-4.433c0-6.517,2.344-12.513,5.993-17.206c3.391-4.432,7.821-7.56,13.037-9.384   c1.04-6.257,4.169-11.732,8.599-15.903c4.958-4.432,11.732-7.3,19.034-7.3h0.258c2.61-4.17,5.997-7.56,9.908-9.906   c4.691-2.868,10.169-4.694,15.904-4.694c8.341,0,15.9,3.389,21.374,9.125c5.477,5.475,8.864,13.035,8.864,21.378   c0,6.256,2.086,11.992,5.215,16.684c2.083,3.39,4.951,6.257,8.342,8.343c-2.348,2.346-4.435,4.692-5.997,7.56   c-2.605,4.432-4.173,9.384-4.173,14.859c0,5.473,1.567,10.689,3.911,14.859c2.087,3.389,4.434,6.257,7.302,8.603   c-2.086,2.868-3.91,5.733-5.215,9.124c-1.825,4.431-2.868,9.123-2.868,14.077c0,4.953,1.043,9.646,2.605,13.818   c1.305,3.129,2.868,6.255,4.954,8.864c-2.605,2.605-4.691,5.473-6.255,8.86c-2.348,4.173-3.391,8.864-3.391,14.08   c0,3.648,0.523,7.298,1.824,10.427c0.785,2.606,1.828,4.692,3.391,6.779c-2.348,2.605-4.172,5.473-5.735,8.602   c-1.563,3.911-2.605,8.342-2.605,13.033c0,8.604,3.387,16.686,9.122,22.421c5.997,5.735,13.818,9.385,22.68,9.385   c4.434,0,8.603-1.044,12.255-2.606c3.388-1.565,6.517-3.391,9.123-5.735c0.262,0,0.781,0,1.043,0   c1.043,0.259,2.086,0.259,3.129,0.259c6.256,0,11.99-2.344,15.901-6.517c4.172-3.911,6.517-9.384,6.777-15.381   c6.778-1.563,12.775-4.954,17.206-9.904c4.954-5.477,8.341-13.037,8.341-21.378c0-1.305-0.258-2.867-0.52-4.172l0,0   c0-0.52,0-1.043,0-1.301c5.216-3.13,9.646-7.303,12.774-12.515c3.649-5.734,5.735-12.513,5.735-19.814   c0-5.993-1.565-11.729-3.91-16.683c-2.086-3.91-4.692-7.56-7.821-10.427c1.824-2.087,3.387-4.434,4.431-6.778   c1.824-3.65,2.609-7.821,2.609-11.994c0-6.517-2.086-12.514-5.735-17.205c-3.13-3.911-7.04-7.039-11.731-8.863   c0-0.262,0-0.522,0-1.043c0.261-1.303,0.52-2.868,0.52-4.433c0-6.517-2.345-12.513-5.994-17.206   c-3.391-4.432-7.821-7.56-13.036-9.384c-1.043-6.257-4.173-11.732-8.604-15.903C326.389,166.843,319.868,163.976,312.57,163.976z" fill="#4E5A62"/><path d="M199.691,167.625c0.781,0,1.563,0,2.344,0c4.434-8.603,13.295-14.598,23.726-14.598   c14.857,0,26.851,11.992,26.851,26.852c0,11.208-7.04,20.594-16.686,24.765c7.822,4.432,13.295,13.035,13.295,22.681   c0,9.906-5.215,18.249-13.037,22.94c5.997,5.997,9.908,14.6,9.908,23.723c0,8.864-3.388,16.947-9.123,23.201   c6.779,4.954,11.209,13.296,11.209,22.422c0,6.778-2.348,12.771-6.258,17.725c5.735,5.216,9.387,12.514,9.387,21.116   c0,15.381-12.513,28.156-28.156,28.156c-8.083,0-15.119-3.391-20.331-8.863c-1.566,0.519-3.391,0.781-5.478,0.781   c-10.427,0-18.768-8.342-18.768-18.77c0-1.042,0-1.823,0-2.609c-14.338-1.301-25.546-13.295-25.546-28.152   c0-2.605,0.258-4.954,1.04-7.301c-11.209-5.735-19.03-17.206-19.03-30.501c0-10.947,5.216-20.854,13.295-26.852   c-5.474-4.691-8.861-11.47-8.861-19.03c0-11.47,7.821-21.116,18.507-23.722c-0.781-2.607-1.301-5.213-1.301-7.821   c0-11.47,7.821-21.116,18.507-23.722C176.228,177.271,186.917,167.625,199.691,167.625z" fill="#F3CF3D"/><path d="M251.046,171.014c1.043,2.868,1.567,5.735,1.567,8.865c0,11.208-7.04,20.594-16.686,24.765   c2.606,1.303,4.954,3.389,6.778,5.735c-0.785,0.522-1.824,1.043-2.868,1.303c3.129,1.826,5.735,4.172,7.818,7.04   c1.046,2.868,1.566,5.735,1.566,8.603c0,9.906-5.215,18.249-13.037,22.94c1.828,1.825,3.652,4.171,4.958,6.517   c-0.262,0.262-0.785,0.523-1.305,0.781c1.563,1.305,2.868,2.868,3.911,4.434c1.563,3.649,2.344,7.822,2.344,11.991   c0,8.864-3.388,16.947-9.123,23.201c2.086,1.306,3.911,3.13,5.474,5.217c-0.523,0.781-1.043,1.301-1.563,1.824   c2.086,1.824,4.172,3.648,5.735,5.734c1.04,3.126,1.563,6.255,1.563,9.646c0,6.778-2.348,12.771-6.258,17.725   c1.828,1.567,3.652,3.649,4.957,5.735c-0.262,0.523-0.785,1.044-1.046,1.566c1.305,1.302,2.609,2.606,3.91,4.169   c1.047,3.129,1.566,6.259,1.566,9.646c0,15.381-12.513,28.156-28.156,28.156c-8.083,0-15.119-3.391-20.331-8.863   c-1.566,0.519-3.391,0.781-5.478,0.781c-5.735,0-10.95-2.606-14.338-6.517c-0.523-1.563-0.523-3.392-0.523-5.217   c0-0.781,0-1.563,0-2.605c-1.04,0-2.345-0.262-3.649-0.52c-0.258-1.305-0.258-2.609-0.258-3.911c0-1.042,0-1.823,0-2.609   c-8.083-0.781-15.381-5.212-20.073-11.47c-1.043-2.867-1.563-5.993-1.563-9.384c0-2.606,0.258-5.212,1.04-7.561   c-1.825-0.781-3.387-1.563-4.692-2.605c0-1.566,0.262-3.129,0.782-4.434c-5.212-2.606-9.646-6.517-13.033-11.209   c-1.301-3.648-2.086-7.821-2.086-12.252c0-10.95,5.211-20.597,13.294-26.852c-2.086-1.563-3.911-3.649-5.212-5.996   c0.262-0.521,0.781-0.782,1.301-1.044c-1.301-1.301-2.606-2.605-3.649-3.91c-0.782-2.606-1.301-5.212-1.301-7.82   c0-11.47,7.821-21.116,18.245-23.722c-0.778-2.607-1.039-5.215-1.039-7.821c0-11.47,7.821-21.116,18.506-23.983   c1.043-12.514,11.732-22.419,24.504-22.419c0.785,0,1.566,0.26,2.086,0.26c4.434-8.603,13.557-14.598,23.987-14.598   C238.271,160.327,246.093,164.498,251.046,171.014z" fill="#F1C40F"/><path d="M183.005,371.488c-0.523-1.566-0.523-2.871-0.523-4.696c0-0.781,0-1.563,0-2.605   c-1.04,0-2.345-0.262-3.649-0.52c-0.258-1.305-0.258-2.609-0.258-3.911c0-1.042,0-1.823,0-2.609   c-3.129-0.258-6.255-1.301-9.126-2.344c0-0.523,0-1.043,0-1.305c0-1.043,0-1.824,0.262-2.606c-3.126-0.262-5.997-1.043-8.861-2.348   c-0.785-1.043-1.566-1.824-2.348-2.867c-1.043-2.867-1.563-5.993-1.563-9.384c0-2.606,0.258-5.212,1.04-7.561   c-1.825-0.781-3.387-1.563-4.692-2.605c0-1.566,0.262-3.129,0.782-4.434c-5.212-2.606-9.646-6.517-13.033-11.209   c-1.301-3.648-2.086-7.821-2.086-12.252c0-10.95,5.211-20.597,13.294-26.852c-2.086-1.563-3.911-3.649-5.212-5.996   c0.262-0.521,0.781-0.782,1.301-1.044c-1.301-1.301-2.606-2.605-3.649-3.91c-0.782-2.606-1.301-5.212-1.301-7.82   c0-11.47,7.821-21.116,18.245-23.722c-0.778-2.607-1.039-5.215-1.039-7.821c0-11.47,7.821-21.116,18.506-23.983   c1.043-12.514,11.732-22.419,24.504-22.419c0.785,0,1.566,0.26,2.086,0.26c4.434-8.603,13.557-14.598,23.987-14.598   c3.649,0,7.298,0.781,10.424,2.084c0.785,0.783,1.305,1.564,1.825,2.346c1.046,2.608,1.566,5.735,1.566,8.865   c0,10.949-6.778,20.595-16.424,24.505c2.609,1.564,4.695,3.649,6.778,5.735c-1.043,0.782-2.083,1.043-3.129,1.565   c3.129,1.824,5.735,4.17,7.821,7.038c1.043,2.606,1.563,5.735,1.563,8.603c0,9.646-5.212,18.249-13.033,22.94   c2.086,1.825,3.649,3.911,4.954,6.257c-0.258,0.26-0.781,0.522-1.043,0.781c1.305,1.565,2.609,3.129,3.649,4.692   c1.563,3.648,2.348,7.821,2.348,11.993c0,8.861-3.387,16.944-8.864,22.941c1.824,1.563,3.652,3.388,5.215,5.474   c-0.523,0.523-1.043,1.305-1.563,1.824c2.345,1.566,4.169,3.648,5.735,5.735c1.04,3.13,1.563,6.258,1.563,9.646   c0,6.517-2.348,12.775-6.259,17.729c2.086,1.563,3.649,3.648,4.954,5.735c-0.258,0.519-0.52,0.781-1.043,1.3   c1.563,1.306,2.868,2.868,3.911,4.435c1.043,2.867,1.825,6.255,1.825,9.384c0,15.644-12.772,28.153-28.415,28.153   c-7.821,0-15.12-3.126-20.334-8.6c-1.566,0.521-3.391,0.781-5.215,0.781C186.393,372.27,184.568,372.009,183.005,371.488z" fill="#F1C40F"/><path d="M199.691,163.976h0.258c2.61-4.17,5.997-7.56,9.908-9.906c4.691-2.868,10.169-4.694,15.904-4.694   c8.341,0,15.9,3.389,21.374,9.125c5.477,5.475,8.864,13.035,8.864,21.378c0,6.256-1.825,11.992-4.954,16.684   c-2.344,3.39-4.953,6.257-8.341,8.343c2.348,2.346,4.431,4.692,5.997,7.56c2.606,4.432,3.911,9.384,3.911,14.859   c0,5.473-1.305,10.689-3.911,14.859c-1.824,3.389-4.172,6.257-7.301,8.603c2.348,2.868,3.911,5.733,5.477,9.124   c1.824,4.431,2.606,9.123,2.606,14.077c0,4.953-0.782,9.646-2.348,13.818c-1.305,3.129-3.129,6.255-4.954,8.864   c2.609,2.605,4.695,5.473,6.258,8.86c2.086,4.173,3.388,8.864,3.388,14.08c0,3.648-0.782,7.298-1.825,10.427   c-0.781,2.606-2.086,4.692-3.387,6.779c2.348,2.605,4.172,5.473,5.474,8.602c1.824,3.911,2.868,8.342,2.868,13.033   c0,8.604-3.649,16.686-9.384,22.421c-5.735,5.735-13.557,9.385-22.421,9.385c-4.431,0-8.603-1.044-12.51-2.606   c-3.133-1.565-6.259-3.391-8.868-5.735c-0.258,0-0.778,0-1.04,0c-1.043,0.259-2.086,0.259-3.391,0.259   c-5.993,0-11.728-2.344-15.9-6.517c-3.911-3.911-6.52-9.384-6.52-15.381c-6.775-1.563-12.772-4.954-17.206-9.904   c-5.212-5.477-8.341-13.037-8.341-21.378c0-1.305,0.262-2.867,0.262-4.172l0,0c0.258-0.52,0.258-1.043,0.258-1.301   c-5.212-3.13-9.642-7.303-12.771-12.515c-3.649-5.734-5.735-12.513-5.735-19.814c0-5.993,1.301-11.729,3.911-16.683   c1.825-3.91,4.434-7.56,7.821-10.427c-1.825-2.087-3.387-4.434-4.695-6.778c-1.563-3.65-2.603-7.821-2.603-11.994   c0-6.517,2.344-12.514,5.993-17.205c3.129-3.911,7.04-7.039,11.732-8.863c0-0.262,0-0.522-0.262-1.043   c0-1.303-0.258-2.868-0.258-4.433c0-6.517,2.344-12.513,5.993-17.206c3.391-4.432,7.821-7.56,13.037-9.384   c1.04-6.257,4.169-11.732,8.599-15.903C185.615,166.843,192.39,163.976,199.691,163.976z M200.734,171.275   c-0.262,0-0.523,0-1.043,0c-5.477,0-10.427,1.825-14.076,5.474c-3.911,3.389-6.259,8.081-6.782,13.556l-0.258,2.608l-2.348,0.52   c-4.692,1.043-8.603,3.91-11.471,7.562c-2.868,3.389-4.43,7.819-4.43,12.773c0,1.303,0,2.346,0.262,3.389   c0,1.043,0.261,2.346,0.778,3.389l1.046,3.649l-3.649,0.783c-4.434,1.303-8.606,3.911-11.212,7.56   c-2.867,3.649-4.43,8.081-4.43,12.773c0,3.129,0.781,6.257,1.824,8.864c1.301,2.868,3.388,5.211,5.735,7.298l3.388,2.867   l-3.649,2.609c-3.649,2.868-6.517,6.517-8.603,10.686c-2.083,4.172-3.129,8.603-3.129,13.557c0,5.735,1.566,11.213,4.434,15.904   c3.125,4.954,7.298,8.861,12.51,11.209l2.609,1.305l-0.782,2.867c-0.261,1.044-0.52,2.083-0.52,3.126l0,0   c-0.262,1.043-0.262,2.348-0.262,3.391c0,6.517,2.344,12.252,6.517,16.683c3.911,4.434,9.646,7.302,15.9,7.821l3.649,0.262   l-0.52,3.91c0,0.263,0,0.521,0,1.044c0,0.261,0,0.52,0,1.042c0,4.169,1.566,8.08,4.431,10.689c2.871,2.868,6.52,4.691,10.688,4.691   c0.782,0,1.566-0.261,2.348-0.261c0.781,0,1.563-0.262,2.083-0.523l2.086-0.521l1.566,1.563c2.344,2.349,4.954,4.172,8.079,5.477   c2.871,1.302,6.259,2.087,9.646,2.087c6.778,0,13.033-2.871,17.467-7.302s7.036-10.428,7.036-17.206   c0-3.648-0.778-7.04-2.083-10.166c-1.305-3.128-3.391-5.996-5.997-8.344l-2.606-2.344l2.086-2.606   c1.825-2.087,3.126-4.434,4.172-7.302c0.778-2.605,1.301-5.212,1.301-8.079c0-3.911-0.781-7.821-2.609-10.951   c-1.563-3.387-4.169-6.517-7.037-8.603l-3.126-2.605l2.603-2.868c2.609-2.609,4.696-5.996,5.997-9.384   c1.305-3.392,2.086-7.302,2.086-11.212c0-3.911-0.782-7.821-2.348-11.471c-1.563-3.649-3.649-7.038-6.513-9.646l-3.391-3.387   l4.169-2.348c3.391-2.084,6.259-4.952,8.083-8.341c2.086-3.389,3.129-7.3,3.129-11.47c0-4.172-1.043-7.821-3.129-11.21   c-2.086-3.649-4.951-6.517-8.341-8.603l-6.255-3.649l6.774-2.607c4.172-1.825,7.822-4.692,10.431-8.603   c2.344-3.649,3.91-8.082,3.91-12.773c0-6.519-2.609-12.254-6.781-16.424c-4.169-4.17-9.904-6.778-16.42-6.778   c-4.435,0-8.607,1.303-11.994,3.389c-3.649,2.346-6.517,5.476-8.603,9.125l-1.043,2.346l-2.348-0.26   C201.516,171.275,200.996,171.275,200.734,171.275L200.734,171.275z" fill="#D9B00E"/><path d="M312.57,167.625c-0.782,0-1.563,0-2.348,0c-4.431-8.603-13.295-14.598-23.722-14.598   c-14.858,0-26.852,11.992-26.852,26.852c0,11.208,6.777,20.594,16.686,24.765c-8.083,4.432-13.295,13.035-13.295,22.681   c0,9.906,5.212,18.249,13.032,22.94c-5.996,5.997-9.906,14.6-9.906,23.723c0,8.864,3.391,16.947,9.125,23.201   c-6.777,4.954-11.208,13.296-11.208,22.422c0,6.778,2.344,12.771,6.255,17.725c-5.735,5.216-9.384,12.514-9.384,21.116   c0,15.381,12.513,28.156,28.152,28.156c7.821,0,15.123-3.391,20.335-8.863c1.565,0.519,3.391,0.781,5.215,0.781   c10.428,0,19.03-8.342,19.03-18.77c0-1.042,0-1.823-0.262-2.609c14.338-1.301,25.809-13.295,25.809-28.152   c0-2.605-0.52-4.954-1.043-7.301c11.212-5.735,19.033-17.206,19.033-30.501c0-10.947-5.215-20.854-13.299-26.852   c5.216-4.691,8.865-11.47,8.865-19.03c0-11.47-7.822-21.116-18.511-23.722c0.785-2.607,1.305-5.213,1.305-7.821   c0-11.47-7.821-21.116-18.51-23.722C335.772,177.271,325.346,167.625,312.57,167.625z" fill="#F3CF3D"/><path d="M261.215,171.014c-1.042,2.868-1.565,5.735-1.565,8.865c0,11.208,6.777,20.594,16.686,24.765   c-2.606,1.303-4.954,3.389-7.04,5.735c1.043,0.522,2.086,1.043,3.129,1.303c-3.129,1.826-5.734,4.172-7.821,7.04   c-1.043,2.868-1.563,5.735-1.563,8.603c0,9.906,5.212,18.249,13.032,22.94c-1.823,1.825-3.648,4.171-4.952,6.517   c0.261,0.262,0.781,0.523,1.042,0.781c-1.305,1.305-2.605,2.868-3.648,4.434c-1.563,3.649-2.348,7.822-2.348,11.991   c0,8.864,3.391,16.947,9.125,23.201c-2.086,1.306-3.91,3.13-5.473,5.217c0.52,0.781,1.039,1.301,1.563,1.824   c-2.086,1.824-4.172,3.648-5.735,5.734c-1.043,3.126-1.563,6.255-1.563,9.646c0,6.778,2.344,12.771,6.255,17.725   c-1.824,1.567-3.648,3.649-4.953,5.735c0.261,0.523,0.781,1.044,1.042,1.566c-1.563,1.302-2.867,2.606-3.91,4.169   c-1.043,3.129-1.563,6.259-1.563,9.646c0,15.381,12.513,28.156,28.152,28.156c7.821,0,15.123-3.391,20.335-8.863   c1.565,0.519,3.391,0.781,5.215,0.781c5.735,0,10.947-2.606,14.6-6.517c0.258-1.563,0.52-3.392,0.52-5.217c0-0.781,0-1.563,0-2.605   c1.043,0,2.348-0.262,3.388-0.52c0.262-1.305,0.523-2.609,0.523-3.911c0-1.042,0-1.823-0.262-2.609   c8.341-0.781,15.643-5.212,20.335-11.47c1.043-2.867,1.563-5.993,1.563-9.384c0-2.606-0.258-5.212-1.043-7.561   c1.566-0.781,3.13-1.563,4.695-2.605c0-1.566-0.523-3.129-0.784-4.434c5.215-2.606,9.646-6.517,13.036-11.209   c1.301-3.648,2.087-7.821,2.087-12.252c0-10.95-5.217-20.597-13.299-26.852c2.086-1.563,3.91-3.649,5.215-5.996   c-0.52-0.521-0.781-0.782-1.305-1.044c1.305-1.301,2.609-2.605,3.653-3.91c0.781-2.606,1.301-5.212,1.301-7.82   c0-11.47-7.821-21.116-18.507-23.722c0.781-2.607,1.302-5.215,1.302-7.821c0-11.47-7.822-21.116-18.511-23.983   c-1.04-12.514-11.729-22.419-24.504-22.419c-0.781,0-1.563,0.26-2.344,0.26c-4.434-8.603-13.299-14.598-23.726-14.598   C273.729,160.327,266.166,164.498,261.215,171.014z" fill="#F1C40F"/><path d="M329.256,371.488c0.52-1.566,0.52-2.871,0.52-4.696c0-0.781,0-1.563,0-2.605   c1.043,0,2.348-0.262,3.388-0.52c0.262-1.305,0.523-2.609,0.523-3.911c0-1.042,0-1.823-0.262-2.609   c3.392-0.258,6.517-1.301,9.126-2.344c0.259-0.523,0.259-1.043,0.259-1.305c0-1.043-0.259-1.824-0.259-2.606   c3.126-0.262,5.993-1.043,8.86-2.348c0.786-1.043,1.567-1.824,2.349-2.867c1.043-2.867,1.563-5.993,1.563-9.384   c0-2.606-0.258-5.212-1.043-7.561c1.566-0.781,3.13-1.563,4.695-2.605c0-1.566-0.523-3.129-0.784-4.434   c5.215-2.606,9.646-6.517,13.036-11.209c1.301-3.648,2.087-7.821,2.087-12.252c0-10.95-5.217-20.597-13.299-26.852   c2.086-1.563,3.91-3.649,5.215-5.996c-0.52-0.521-0.781-0.782-1.305-1.044c1.305-1.301,2.609-2.605,3.653-3.91   c0.781-2.606,1.301-5.212,1.301-7.82c0-11.47-7.821-21.116-18.507-23.722c0.781-2.607,1.302-5.215,1.302-7.821   c0-11.47-7.822-21.116-18.511-23.983c-1.04-12.514-11.729-22.419-24.504-22.419c-0.781,0-1.563,0.26-2.344,0.26   c-4.434-8.603-13.299-14.598-23.726-14.598c-3.649,0-7.299,0.781-10.428,2.084c-0.781,0.783-1.305,1.564-1.824,2.346   c-1.043,2.608-1.563,5.735-1.563,8.865c0,10.949,6.778,20.595,16.424,24.505c-2.609,1.564-4.954,3.649-6.778,5.735   c1.043,0.782,2.082,1.043,2.868,1.565c-2.868,1.824-5.735,4.17-7.822,7.038c-0.781,2.606-1.305,5.735-1.305,8.603   c0,9.646,5.216,18.249,13.037,22.94c-2.087,1.825-3.652,3.911-5.215,6.257c0.519,0.26,0.781,0.522,1.305,0.781   c-1.305,1.565-2.61,3.129-3.911,4.692c-1.306,3.648-2.087,7.821-2.087,11.993c0,8.861,3.388,16.944,8.865,22.941   c-2.086,1.563-3.911,3.388-5.478,5.474c0.523,0.523,1.043,1.305,1.566,1.824c-2.086,1.566-3.91,3.648-5.477,5.735   c-1.302,3.13-1.825,6.258-1.825,9.646c0,6.517,2.348,12.775,6.259,17.729c-1.824,1.563-3.391,3.648-4.953,5.735   c0.52,0.519,0.781,0.781,1.305,1.3c-1.566,1.306-2.868,2.868-4.173,4.435c-1.043,2.867-1.563,6.255-1.563,9.384   c0,15.644,12.771,28.153,28.152,28.153c8.083,0,15.381-3.126,20.335-8.6c1.824,0.521,3.648,0.781,5.474,0.781   C325.604,372.27,327.428,372.009,329.256,371.488z" fill="#F1C40F"/><path d="M312.57,163.976h-0.262c-2.605-4.17-5.993-7.56-10.166-9.906c-4.434-2.868-9.907-4.694-15.642-4.694   c-8.342,0-15.901,3.389-21.637,9.125c-5.478,5.475-8.864,13.035-8.864,21.378c0,6.256,2.086,11.992,5.215,16.684   c2.083,3.39,4.951,6.257,8.342,8.343c-2.348,2.346-4.435,4.692-5.997,7.56c-2.605,4.432-4.173,9.384-4.173,14.859   c0,5.473,1.567,10.689,3.911,14.859c2.087,3.389,4.434,6.257,7.302,8.603c-2.086,2.868-3.91,5.733-5.215,9.124   c-1.825,4.431-2.868,9.123-2.868,14.077c0,4.953,1.043,9.646,2.605,13.818c1.305,3.129,2.868,6.255,4.954,8.864   c-2.605,2.605-4.691,5.473-6.255,8.86c-2.348,4.173-3.391,8.864-3.391,14.08c0,3.648,0.523,7.298,1.824,10.427   c0.785,2.606,1.828,4.692,3.391,6.779c-2.348,2.605-4.172,5.473-5.735,8.602c-1.563,3.911-2.605,8.342-2.605,13.033   c0,8.604,3.387,16.686,9.122,22.421c5.997,5.735,13.818,9.385,22.68,9.385c4.434,0,8.603-1.044,12.255-2.606   c3.388-1.565,6.517-3.391,9.123-5.735c0.262,0,0.781,0,1.043,0c1.043,0.259,2.086,0.259,3.129,0.259   c6.256,0,11.99-2.344,15.901-6.517c4.172-3.911,6.517-9.384,6.777-15.381c6.778-1.563,12.775-4.954,17.206-9.904   c4.954-5.477,8.341-13.037,8.341-21.378c0-1.305-0.258-2.867-0.52-4.172l0,0c0-0.52,0-1.043,0-1.301   c5.216-3.13,9.646-7.303,12.774-12.515c3.649-5.734,5.735-12.513,5.735-19.814c0-5.993-1.565-11.729-3.91-16.683   c-2.086-3.91-4.692-7.56-7.821-10.427c1.824-2.087,3.387-4.434,4.431-6.778c1.824-3.65,2.609-7.821,2.609-11.994   c0-6.517-2.086-12.514-5.735-17.205c-3.13-3.911-7.04-7.039-11.731-8.863c0-0.262,0-0.522,0-1.043   c0.261-1.303,0.52-2.868,0.52-4.433c0-6.517-2.345-12.513-5.994-17.206c-3.391-4.432-7.821-7.56-13.036-9.384   c-1.043-6.257-4.173-11.732-8.604-15.903C326.389,166.843,319.868,163.976,312.57,163.976z M311.527,171.275   c0.261,0,0.523,0,1.043,0c5.474,0,10.428,1.825,14.076,5.474c3.648,3.389,6.258,8.081,6.778,13.556l0.262,2.608l2.344,0.52   c4.696,1.043,8.606,3.91,11.471,7.562c2.871,3.389,4.434,7.819,4.434,12.773c0,1.303,0,2.346-0.261,3.389   c-0.263,1.043-0.521,2.346-0.782,3.389l-1.305,3.649l3.911,0.783c4.435,1.303,8.345,3.911,11.212,7.56   c2.868,3.649,4.431,8.081,4.431,12.773c0,3.129-0.781,6.257-2.086,8.864c-1.305,2.868-3.13,5.211-5.474,7.298l-3.391,2.867   l3.391,2.609c3.91,2.868,6.778,6.517,8.864,10.686c2.082,4.172,3.126,8.603,3.126,13.557c0,5.735-1.563,11.213-4.431,15.904   c-3.13,4.954-7.298,8.861-12.514,11.209l-2.606,1.305l0.782,2.867c0.262,1.044,0.52,2.083,0.52,3.126l0,0   c0.262,1.043,0.262,2.348,0.262,3.391c0,6.517-2.345,12.252-6.517,16.683c-3.91,4.434-9.646,7.302-15.904,7.821l-3.649,0.262   l0.523,3.91c0,0.263,0,0.521,0,1.044c0,0.261,0,0.52,0,1.042c0,4.169-1.566,8.08-4.434,10.689   c-2.868,2.868-6.517,4.691-10.947,4.691c-0.781,0-1.566-0.261-2.086-0.261c-0.782,0-1.563-0.262-2.086-0.523l-2.086-0.521   l-1.563,1.563c-2.349,2.349-5.217,4.172-8.084,5.477c-3.126,1.302-6.255,2.087-9.646,2.087c-6.778,0-13.034-2.871-17.464-7.302   c-4.434-4.431-7.302-10.428-7.302-17.206c0-3.648,0.781-7.04,2.349-10.166c1.301-3.128,3.387-5.996,5.996-8.344l2.605-2.344   l-2.086-2.606c-1.824-2.087-3.129-4.434-4.172-7.302c-1.043-2.605-1.302-5.212-1.302-8.079c0-3.911,0.782-7.821,2.345-10.951   c1.825-3.387,4.173-6.517,7.302-8.603l3.125-2.605l-2.605-2.868c-2.606-2.609-4.692-5.996-5.996-9.384   c-1.302-3.392-2.083-7.302-2.083-11.212c0-3.911,0.781-7.821,2.344-11.471c1.566-3.649,3.649-7.038,6.517-9.646l3.129-3.387   l-3.91-2.348c-3.388-2.084-6.255-4.952-8.341-8.341c-1.825-3.389-2.867-7.3-2.867-11.47c0-4.172,1.042-7.821,3.129-11.21   c1.824-3.649,4.691-6.517,8.341-8.603l6.255-3.649l-6.778-2.607c-4.169-1.825-7.817-4.692-10.427-8.603   c-2.345-3.649-3.911-8.082-3.911-12.773c0-6.519,2.61-12.254,6.778-16.424c4.173-4.17,9.908-6.778,16.425-6.778   c4.434,0,8.602,1.303,11.993,3.389c3.648,2.346,6.517,5.476,8.603,9.125l1.043,2.346l2.345-0.26   C310.746,171.275,311.266,171.275,311.527,171.275L311.527,171.275z" fill="#D9B00E"/><path d="M256,5.214L256,5.214c4.691,0,8.603,3.911,8.603,8.603v119.138c0,4.692-3.911,8.341-8.603,8.341l0,0   c-4.692,0-8.345-3.649-8.345-8.341V13.816C247.655,9.125,251.308,5.214,256,5.214z M388.432,66.476L388.432,66.476   c-3.91-2.346-9.384-0.782-11.731,3.129l-45.361,78.989c-2.345,4.17-1.044,9.384,3.129,11.732l0,0   c3.911,2.346,9.384,1.042,11.731-3.129l45.362-78.989C393.906,74.297,392.602,68.824,388.432,66.476z M123.568,66.476   L123.568,66.476c3.911-2.346,9.384-0.782,11.732,3.129l45.358,78.989c2.348,4.17,1.047,9.384-3.126,11.732l0,0   c-3.91,2.346-9.384,1.042-11.731-3.129l-45.358-78.989C118.094,74.297,119.396,68.824,123.568,66.476z" fill="#D9B00E"/><path d="M256,5.214L256,5.214c1.305,0,2.605,0.262,3.649,0.783c0.781,1.303,1.042,2.606,1.042,4.17v119.135   c0,4.694-3.648,8.603-8.34,8.603l0,0c-1.305,0-2.61-0.26-3.649-0.781c-0.785-1.303-1.046-2.606-1.046-4.17V13.816   C247.655,9.125,251.308,5.214,256,5.214z M331.339,157.198c3.91,1.824,8.603,0.262,10.95-3.649l45.361-78.729   c1.825-2.868,1.563-5.995,0-8.603c-3.91-1.825-8.603-0.26-10.95,3.389l-45.361,78.989   C329.775,151.462,329.775,154.592,331.339,157.198z M131.389,66.216l45.62,78.989c2.348,3.911,0.785,9.125-3.387,11.732l0,0   c-2.348,1.303-5.212,1.303-7.821,0.26l-45.358-78.989c-2.348-3.911-1.047-9.385,3.125-11.732l0,0   C125.916,65.173,128.78,65.173,131.389,66.216z" fill="#F3CF3D"/></g></svg>